<svg width="14" height="15" viewBox="0 0 14 15" fill="none" xmlns="http://www.w3.org/2000/svg">
<path d="M2.16602 3.32949C2.16602 2.70865 2.6691 2.20557 3.28994 2.20557H11.1827C11.8036 2.20557 12.3067 2.70865 12.3067 3.32949V11.2223C12.3067 11.5204 12.1882 11.8062 11.9775 12.017C11.7667 12.2278 11.4808 12.3462 11.1827 12.3462H3.28994C2.99185 12.3462 2.70598 12.2278 2.4952 12.017C2.28443 11.8062 2.16602 11.5204 2.16602 11.2223V3.32949ZM4.05724 10.6561H10.5303C10.1673 10.1341 9.68334 9.70771 9.11972 9.41339C8.55611 9.11908 7.92963 8.96557 7.2938 8.96599C6.65797 8.96557 6.03148 9.11908 5.46787 9.41339C4.90426 9.70771 4.42026 10.1341 4.05724 10.6561ZM7.23633 7.83925C7.49527 7.83925 7.75168 7.78825 7.9909 7.68916C8.23013 7.59007 8.4475 7.44483 8.6306 7.26173C8.8137 7.07863 8.95894 6.86126 9.05803 6.62203C9.15712 6.3828 9.20812 6.1264 9.20812 5.86746C9.20812 5.60852 9.15712 5.35212 9.05803 5.11289C8.95894 4.87366 8.8137 4.65629 8.6306 4.4732C8.4475 4.2901 8.23013 4.14486 7.9909 4.04577C7.75168 3.94667 7.49527 3.89567 7.23633 3.89567C6.71338 3.89567 6.21185 4.10341 5.84207 4.4732C5.47228 4.84298 5.26454 5.34451 5.26454 5.86746C5.26454 6.39041 5.47228 6.89195 5.84207 7.26173C6.21185 7.63151 6.71338 7.83925 7.23633 7.83925Z" fill="white"/>
</svg>
