<svg width="15" height="15" viewBox="0 0 15 15" fill="none" xmlns="http://www.w3.org/2000/svg">
<path d="M12.6898 11.7825C12.6898 11.9319 12.6305 12.0752 12.5248 12.1809C12.4192 12.2865 12.2759 12.3459 12.1265 12.3459H3.11256C2.96315 12.3459 2.81985 12.2865 2.7142 12.1809C2.60855 12.0752 2.54919 11.9319 2.54919 11.7825V5.86152C2.54913 5.77567 2.5687 5.69094 2.60639 5.61381C2.64407 5.53667 2.69889 5.46917 2.76665 5.41646L7.2736 1.91118C7.3725 1.83425 7.49422 1.79248 7.61951 1.79248C7.74481 1.79248 7.86653 1.83425 7.96542 1.91118L12.4724 5.41646C12.5401 5.46917 12.595 5.53667 12.6326 5.61381C12.6703 5.69094 12.6899 5.77567 12.6898 5.86152V11.7825Z" fill="white"/>
</svg>
