<svg width="14" height="15" viewBox="0 0 14 15" fill="none" xmlns="http://www.w3.org/2000/svg">
<path d="M6.92798 1.07861C7.2979 1.07861 7.66419 1.15147 8.00594 1.29303C8.3477 1.43459 8.65822 1.64208 8.91979 1.90365C9.18136 2.16522 9.38885 2.47574 9.53041 2.8175C9.67197 3.15925 9.74483 3.52554 9.74483 3.89546V5.02219H11.4349C11.5843 5.02219 11.7276 5.08155 11.8333 5.1872C11.9389 5.29285 11.9983 5.43615 11.9983 5.58556V12.346C11.9983 12.4954 11.9389 12.6387 11.8333 12.7443C11.7276 12.85 11.5843 12.9094 11.4349 12.9094H2.42103C2.27162 12.9094 2.12832 12.85 2.02267 12.7443C1.91702 12.6387 1.85767 12.4954 1.85767 12.346V5.58556C1.85767 5.43615 1.91702 5.29285 2.02267 5.1872C2.12832 5.08155 2.27162 5.02219 2.42103 5.02219H4.11114V3.89546C4.11114 3.14838 4.40791 2.43191 4.93617 1.90365C5.46444 1.37539 6.18091 1.07861 6.92798 1.07861ZM9.74483 6.7123H8.61809V7.27567C8.61825 7.41926 8.67323 7.55737 8.7718 7.66178C8.87038 7.7662 9.0051 7.82903 9.14844 7.83744C9.29179 7.84586 9.43293 7.79922 9.54305 7.70706C9.65316 7.6149 9.72392 7.48417 9.74088 7.34158L9.74483 7.27567V6.7123ZM5.23788 6.7123H4.11114V7.27567C4.1113 7.41926 4.16628 7.55737 4.26485 7.66178C4.36343 7.7662 4.49815 7.82903 4.64149 7.83744C4.78484 7.84586 4.92599 7.79922 5.0361 7.70706C5.14621 7.6149 5.21697 7.48417 5.23393 7.34158L5.23788 7.27567V6.7123ZM6.92798 2.20535C6.49689 2.20533 6.08208 2.37004 5.76842 2.66578C5.45477 2.96153 5.26599 3.36595 5.24069 3.7963L5.23788 3.89546V5.02219H8.61809V3.89546C8.61811 3.46436 8.4534 3.04955 8.15766 2.7359C7.86191 2.42224 7.45749 2.23346 7.02714 2.20817L6.92798 2.20535Z" fill="white"/>
</svg>
